<svg width="218" height="95" viewBox="0 0 218 95" fill="none" xmlns="http://www.w3.org/2000/svg">
<path d="M57.7085 58.9325C70.7453 58.9325 81.3137 48.3603 81.3137 35.3189C81.3137 22.2775 70.7453 11.7053 57.7085 11.7053C44.6717 11.7053 34.1033 22.2775 34.1033 35.3189C34.1033 48.3603 44.6717 58.9325 57.7085 58.9325Z" fill="#8FC3EB"/>
<path d="M84.9526 45.9963C84.9526 45.9963 86.632 21.2814 117.235 6.96389C147.838 -7.3536 189.954 3.54785 198.37 11.7239C198.37 11.7239 141.661 5.33987 125.93 22.9987C125.93 22.9987 130.428 43.1963 170.846 52.4551C170.846 52.4551 163.829 59.4738 149.498 55.2551C135.167 51.0364 129.009 42.6176 114.678 42.0576C100.347 41.4976 84.9153 45.9963 84.9153 45.9963H84.9526Z" fill="#8FC3EB"/>
<path d="M1 56.5992C1 56.5992 15.0325 55.8152 27.3856 63.394C39.7387 70.9727 42.2578 70.6927 54.0511 70.6927C65.8444 70.6927 71.7783 68.6393 81.3137 63.6366C90.8491 58.6339 97.8653 56.5992 108.8 56.5992C119.735 56.5992 125.93 59.6606 134.066 63.6366C142.202 67.6127 150.077 70.6927 164.109 70.6927C178.142 70.6927 184.318 66.9593 189.655 63.6366C194.992 60.3139 200.329 56.5992 210.424 56.5992H218" stroke="#8FC3EB" stroke-width="5" stroke-miterlimit="10"/>
<path d="M1 77.45C1 77.45 15.0325 76.666 27.3856 84.2448C39.7387 91.8235 42.2578 91.5435 54.0511 91.5435C65.8444 91.5435 71.7783 89.4902 81.3137 84.4875C90.8491 79.4847 97.8653 77.45 108.8 77.45C119.735 77.45 125.93 80.5114 134.066 84.4875C142.202 88.4635 150.077 91.5435 164.109 91.5435C178.142 91.5435 184.318 87.8102 189.655 84.4875C194.992 81.1648 200.329 77.45 210.424 77.45H218" stroke="#8FC3EB" stroke-width="5" stroke-miterlimit="10"/>
</svg>
