<svg width="217" height="126" viewBox="0 0 217 126" fill="none" xmlns="http://www.w3.org/2000/svg">
<path d="M0.260986 86.5576C0.260986 86.5576 14.2742 85.7773 26.6103 93.3202C38.9464 100.863 41.4621 100.584 53.2392 100.584C65.0162 100.584 70.9421 98.5408 80.4643 93.5617C89.9866 88.5827 96.9932 86.5576 107.913 86.5576C118.833 86.5576 125.02 89.6045 133.144 93.5617C141.269 97.519 149.133 100.584 163.146 100.584C177.159 100.584 183.327 96.8687 188.657 93.5617C193.986 90.2547 199.316 86.5576 209.397 86.5576H216.963" stroke="#8FC3EB" stroke-width="5" stroke-miterlimit="10"/>
<path d="M0.260986 107.31C0.260986 107.31 14.2742 106.53 26.6103 114.073C38.9464 121.616 41.4621 121.337 53.2392 121.337C65.0162 121.337 70.9421 119.293 80.4643 114.314C89.9866 109.335 96.9932 107.31 107.913 107.31C118.833 107.31 125.02 110.357 133.144 114.314C141.269 118.271 149.133 121.337 163.146 121.337C177.159 121.337 183.327 117.621 188.657 114.314C193.986 111.007 199.316 107.31 209.397 107.31H216.963" stroke="#8FC3EB" stroke-width="5" stroke-miterlimit="10"/>
<path d="M38.1822 77.0082C50.0485 77.0082 59.6679 67.4177 59.6679 55.5871C59.6679 43.7566 50.0485 34.166 38.1822 34.166C26.316 34.166 16.6965 43.7566 16.6965 55.5871C16.6965 67.4177 26.316 77.0082 38.1822 77.0082Z" fill="#8FC3EB"/>
<path d="M101.987 0C101.987 0 46.5866 73.2182 64.0286 82.5261C81.4706 91.834 101.987 0 101.987 0Z" fill="#8FC3EB"/>
<path d="M205.316 64.8394C205.316 64.8394 97.0117 41.5604 97.0117 64.8394C97.0117 88.1184 205.316 64.8394 205.316 64.8394Z" fill="#8FC3EB"/>
</svg>
