<svg width="448" height="139" viewBox="0 0 448 139" fill="none" xmlns="http://www.w3.org/2000/svg">
<path d="M446.953 100.871C446.953 100.871 432.732 100.077 420.213 107.755C407.694 115.432 405.141 115.149 393.19 115.149C381.238 115.149 375.224 113.069 365.561 108C355.897 102.932 348.787 100.871 337.705 100.871C326.623 100.871 320.345 103.972 312.099 108C303.854 112.028 295.874 115.149 281.653 115.149C267.432 115.149 261.172 111.367 255.764 108C250.355 104.634 244.947 100.871 234.716 100.871H227.038" stroke="#8FC3EB" stroke-width="5" stroke-miterlimit="10"/>
<path d="M446.953 121.995C446.953 121.995 432.732 121.2 420.213 128.878C407.694 136.556 405.141 136.272 393.19 136.272C381.238 136.272 375.224 134.192 365.561 129.124C355.897 124.056 348.787 121.995 337.705 121.995C326.623 121.995 320.345 125.096 312.099 129.124C303.854 133.152 295.874 136.272 281.653 136.272C267.432 136.272 261.172 132.49 255.764 129.124C250.355 125.758 244.947 121.995 234.716 121.995H227.038" stroke="#8FC3EB" stroke-width="5" stroke-miterlimit="10"/>
<path d="M389.615 95.0843C389.615 95.0843 369.607 41.5475 329.308 20.3105C289.009 -0.926526 234.545 0.00011001 234.545 0.00011001C234.545 0.00011001 309.773 17.0767 389.615 95.0843Z" fill="#8FC3EB"/>
<path d="M377.966 59.5883C385.417 55.5414 391.922 49.6979 391.922 37.6894C391.922 24.4707 381.2 13.7671 368 13.7671C359.188 13.7671 351.472 18.5326 347.33 25.6243C347.33 25.6243 357.637 31.8838 364.691 39.3536C372.425 47.542 377.966 59.5883 377.966 59.5883Z" fill="#8FC3EB"/>
<path d="M219.915 101.023C219.915 101.023 205.694 100.229 193.175 107.907C180.656 115.585 178.103 115.301 166.151 115.301C154.2 115.301 148.186 113.221 138.523 108.153C128.859 103.085 121.749 101.023 110.667 101.023C99.5849 101.023 93.3065 104.125 85.0613 108.153C76.8162 112.181 68.8357 115.301 54.6147 115.301C40.3937 115.301 34.1342 111.519 28.7256 108.153C23.3171 104.787 17.9086 101.023 7.67775 101.023H-9.16748e-05" stroke="#8FC3EB" stroke-width="5" stroke-miterlimit="10"/>
<path d="M288.915 70.0233C288.915 70.0233 274.694 69.2291 262.175 76.9069C249.656 84.5848 247.103 84.3011 235.151 84.3011C223.2 84.3011 217.186 82.2209 207.523 77.1528C197.859 72.0846 190.749 70.0233 179.667 70.0233C168.585 70.0233 162.307 73.1247 154.061 77.1528C145.816 81.1808 137.836 84.3011 123.615 84.3011C109.394 84.3011 103.134 80.5189 97.7256 77.1528C92.3171 73.7866 86.9086 70.0233 76.6777 70.0233H68.9999" stroke="#8FC3EB" stroke-width="5" stroke-miterlimit="10"/>
</svg>
