<svg width="40" height="54" viewBox="0 0 40 54" fill="none" xmlns="http://www.w3.org/2000/svg">
<path fill-rule="evenodd" clip-rule="evenodd" d="M12.7634 37.2681C8.93005 34.9224 4.73186 34.709 2.00012 35.2414L2.38276 37.2045C4.70984 36.7509 8.38225 36.9319 11.7195 38.9741C15.0148 40.9906 18.1101 44.8998 19.2026 52.1489L21.1898 52.0567C21.3478 49.2833 22.399 45.2026 24.9922 42.0151C27.5393 38.8841 31.6262 36.5421 38.0875 37.2175L38.2954 35.2284C31.1566 34.4821 26.4102 37.1029 23.4407 40.7529C21.8284 42.7348 20.7559 44.998 20.0887 47.1457C18.4829 42.2207 15.774 39.1104 12.7634 37.2681Z" fill="#8FC3EB" stroke="#8FC3EB" stroke-width="2"/>
<path d="M20 0L20 35" stroke="#8FC3EB" stroke-width="4"/>
</svg>
