<?xml version="1.0" encoding="UTF-8"?><svg id="_레이어_2" xmlns="http://www.w3.org/2000/svg" viewBox="0 0 1066.96 1067.17"><defs><style>.cls-1{stroke-width:0px;}</style></defs><g id="_레이어_2-2"><path class="cls-1" d="M528.26,1.83l.09,3.01-5.54.16,6.61,20.12-11.14.32-4.69-14.21-3.98,14.46-7.47.22-4.87-14.2-3.8,14.45-3.43.1,5.43-20.46-5.54.16-.09-3.01,38.41-1.11ZM519.52,45.29c-5.26.15-9.58.09-12.96-.2-3.38-.28-6.05-.76-8-1.42-1.95-.67-3.31-1.53-4.08-2.59-.77-1.06-1.18-2.3-1.22-3.7-.04-1.4.29-2.66,1.01-3.77.71-1.1,2.02-2.05,3.92-2.83,1.9-.78,4.54-1.41,7.9-1.89s7.67-.79,12.93-.95c5.26-.15,9.58-.09,12.96.2,3.38.28,6.05.76,8,1.42s3.31,1.53,4.08,2.59c.77,1.06,1.18,2.3,1.22,3.7s-.29,2.66-1.01,3.77c-.71,1.1-2.02,2.05-3.92,2.83-1.9.78-4.54,1.41-7.9,1.89-3.36.48-7.67.79-12.93.95ZM511.85,5.32l-5.42.16,2.96,8.71,2.45-8.87ZM519.43,42.28c4.34-.13,7.38-.74,9.14-1.83,1.75-1.1,2.61-2.49,2.56-4.17-.05-1.69-.98-3.02-2.8-4.02-1.82-.99-4.89-1.42-9.23-1.3-4.34.13-7.38.74-9.14,1.83-1.76,1.1-2.61,2.49-2.56,4.17.05,1.69.98,3.02,2.8,4.02,1.82.99,4.89,1.42,9.23,1.3ZM531.47.35l12.16-.35.73,25.29-12.16.35-.73-25.29Z"/><path class="cls-1" d="M606.74,49.12c-4.53.63-9.25.73-14.15.28s-9.52-1.4-13.86-2.84c-4.34-1.45-8.96-2.39-13.86-2.84s-9.61-.36-14.15.28l.27-3c4.53-.63,9.25-.73,14.15-.28s9.52,1.4,13.86,2.84c4.34,1.45,8.96,2.39,13.86,2.84s9.61.36,14.15-.28l-.27,3ZM588.95,34l2.38-26.03-32.21-2.95.27-3,46.43,4.25-2.66,29.03-14.22-1.3Z"/><path class="cls-1" d="M653.23,15.4l-4.74,21.84-17.48-3.79-3.54,16.31c.34.15.66.31.98.46.32.15.64.32.97.52,2.43,1.31,5.02,2.26,7.76,2.85s5.5.8,8.25.62l-.64,2.94c-2.75.18-5.5-.02-8.25-.62-2.75-.6-5.34-1.55-7.76-2.85-2.43-1.31-5.02-2.26-7.76-2.85-2.75-.6-5.5-.8-8.25-.62l4.93-22.72,17.48,3.79,3.46-15.95-17.48-3.79.64-2.94,31.43,6.81ZM658.41,15.1l13.95,3.02-9.57,44.15-13.95-3.02,9.57-44.15Z"/><path class="cls-1" d="M716.15,34.03l-.99,2.84-9.32-3.26-3.37,41.38-13.82-4.83,2.59-32.21-18,26.82-3.47-1.21,23.16-34.46-9.32-3.26.99-2.84,31.56,11.04ZM720.7,34.16l13.48,4.71-14.91,42.64-13.48-4.71,14.91-42.64Z"/><path class="cls-1" d="M795.58,97.31l-5.01,9.34-31.68-17.01-1.91,3.56c1.62.96,3.21,1.98,4.75,3.06,1.54,1.08,3,2.24,4.38,3.48,3.17,2.84,6.66,5.29,10.48,7.34,3.82,2.05,7.79,3.61,11.91,4.68l-1.42,2.65c-4.12-1.07-8.09-2.63-11.91-4.68-3.82-2.05-7.32-4.5-10.48-7.34-3.17-2.84-6.66-5.29-10.48-7.34-3.82-2.05-7.79-3.61-11.91-4.68l5.44-10.14,31.68,17.01,2.16-4.03-31.68-17.01,1.42-2.65,44.26,23.76ZM790.77,68.07l-9.32,17.35-28.34-15.21,7.89-14.7-2.65-1.42,1.42-2.65,30.99,16.64ZM766.91,74.19l3.61,1.94,6.47-12.05-3.61-1.94-6.47,12.05ZM794.77,68.64l12.58,6.75-4.42,8.23,4.99,2.68-1.42,2.65-4.99-2.68-4.7,8.76-12.58-6.75,10.54-19.64Z"/><path class="cls-1" d="M838.56,150.08c-4.24-1.72-8.38-4-12.39-6.83-4.02-2.84-7.55-5.97-10.59-9.39-3.04-3.42-6.57-6.55-10.59-9.39-4.02-2.84-8.15-5.11-12.39-6.83l1.74-2.46c2.19.86,4.35,1.89,6.45,3.08,2.11,1.19,4.17,2.52,6.18,3.99l11.57-16.39,11.66,8.23-12.5,17.71c1.49,1.64,3.13,3.24,4.91,4.79,1.78,1.55,3.64,3,5.57,4.33,1.93,1.34,3.92,2.57,5.97,3.7,2.05,1.13,4.11,2.12,6.15,2.98l-1.74,2.46ZM830.71,128.09l15.08-21.36-26.42-18.65,1.74-2.46,38.09,26.89-16.81,23.82-11.66-8.23Z"/><path class="cls-1" d="M852.26,144.53l10.91,9.2-8.81,10.45-10.96-.73-2.53-2.14,7.37-2.3-4.79-4.04,8.81-10.45Z"/><path class="cls-1" d="M907.61,217.31c-1.83-1.2-3.51-2.41-5.01-3.64-1.51-1.23-2.91-2.53-4.19-3.91-1.29-1.38-2.5-2.86-3.62-4.45-1.13-1.59-2.22-3.34-3.3-5.25-1.07-1.91-2.17-3.66-3.3-5.25s-2.33-3.07-3.62-4.45c-1.29-1.38-2.69-2.68-4.19-3.91-1.51-1.23-3.18-2.44-5.01-3.64l10.47-9.79,9.75,10.43-7.22,6.75c.96,1.14,1.87,2.34,2.76,3.61.88,1.26,1.73,2.66,2.56,4.2,1.07,1.91,2.17,3.66,3.3,5.25,1.13,1.59,2.33,3.07,3.62,4.45,1.29,1.38,2.69,2.68,4.19,3.91,1.51,1.23,3.18,2.44,5.01,3.64l-2.2,2.06ZM926.24,205.66l-2.2,2.06-13.49-14.43-6.47,6.05-9.75-10.43,6.47-6.05-15.18-16.24,2.2-2.06,38.42,41.09ZM905.26,174.4l22.5,24.07-2.2,2.06-32.25-34.49,10.96-10.24-2.06-2.2,2.2-2.06,11.81,12.63-10.96,10.24Z"/><path class="cls-1" d="M957.52,254.11l-8.08,5.89-19.07-26.13-2.77,2.02c.81,1.25,1.58,2.55,2.3,3.92.72,1.36,1.4,2.86,2.04,4.48.83,2.03,1.71,3.9,2.64,5.61.93,1.71,1.95,3.33,3.06,4.85,1.11,1.52,2.34,2.99,3.69,4.39,1.35,1.4,2.86,2.81,4.54,4.22l-2.43,1.78c-1.68-1.41-3.19-2.82-4.53-4.22s-2.58-2.87-3.69-4.39c-1.11-1.53-2.13-3.14-3.06-4.85s-1.8-3.58-2.64-5.61c-.83-2.03-1.71-3.9-2.64-5.61-.93-1.71-1.95-3.33-3.06-4.85-1.11-1.53-2.34-2.99-3.69-4.39-1.35-1.4-2.86-2.81-4.54-4.22l8.81-6.43,19.07,26.13,3.21-2.34-19.07-26.13,2.43-1.78,27.48,37.66ZM965.52,254.24l-2.43,1.78-33.16-45.44,2.43-1.78,33.16,45.44ZM972.21,244.51c-1.07.78-2.21,1.21-3.43,1.27-1.22.07-2.64-.4-4.26-1.4-1.63-1-3.52-2.66-5.69-4.98-2.17-2.32-4.72-5.49-7.65-9.52-2.94-4.02-5.18-7.42-6.73-10.19-1.55-2.77-2.55-5.08-3.01-6.94-.46-1.85-.47-3.35-.03-4.49.44-1.14,1.19-2.1,2.26-2.88,1.07-.78,2.22-1.21,3.43-1.27,1.22-.07,2.64.4,4.27,1.4,1.63,1,3.52,2.66,5.69,4.98,2.16,2.32,4.72,5.49,7.65,9.52s5.18,7.42,6.73,10.19c1.55,2.77,2.55,5.08,3.01,6.94.46,1.85.47,3.35.03,4.49-.44,1.14-1.19,2.1-2.26,2.88ZM952.01,216.83c-.58.43-1.04.96-1.37,1.6-.33.64-.47,1.41-.43,2.33.04.91.33,1.97.86,3.17.53,1.2,1.37,2.6,2.53,4.19,1.16,1.59,2.23,2.82,3.22,3.69s1.9,1.47,2.76,1.79c.85.32,1.64.42,2.35.3.71-.12,1.35-.39,1.94-.82s1.04-.96,1.37-1.6c.33-.64.47-1.41.43-2.33-.04-.91-.33-1.97-.86-3.17-.53-1.2-1.37-2.6-2.53-4.19-1.16-1.59-2.23-2.82-3.22-3.69-.99-.87-1.9-1.47-2.76-1.79-.86-.32-1.64-.42-2.35-.3-.71.12-1.35.39-1.94.82Z"/><path class="cls-1" d="M982.15,335.62c-2.97-3.49-5.57-7.42-7.82-11.79-2.25-4.37-3.93-8.78-5.04-13.22-1.11-4.44-2.79-8.85-5.04-13.22-2.25-4.37-4.86-8.31-7.82-11.79l2.68-1.38c2.97,3.49,5.57,7.42,7.82,11.79,2.25,4.37,3.93,8.78,5.04,13.22,1.11,4.44,2.79,8.85,5.04,13.22,2.25,4.37,4.86,8.31,7.82,11.79l-2.68,1.38ZM981.13,302.96l-10.02-19.5,22.71-11.68-1.38-2.68,2.68-1.38,11.4,22.18-2.68,1.38-3.5-6.8-20.03,10.3,3.5,6.8-2.68,1.38ZM1007.79,292.37l10.02,19.5-2.68,1.38-3.5-6.8-20.03,10.3,3.77,7.34-2.68,1.38-10.3-20.03,25.39-13.05Z"/><path class="cls-1" d="M1002.42,390.13c-2.46-3.67-4.45-7.56-5.96-11.67-1.51-4.11-2.52-8.36-3.02-12.75-.5-4.39-1.51-8.64-3.02-12.75-1.51-4.11-3.49-8-5.96-11.67l15.66-5.76,4.92,13.4-11.42,4.2c.64,1.86,1.19,3.76,1.64,5.69.45,1.93.79,3.88,1,5.86.5,4.39,1.51,8.64,3.02,12.75,1.51,4.11,3.5,8,5.96,11.67l-2.83,1.04ZM1035.53,356.78l-4.69,1.73,1.72,4.69,5.99-2.2,4.93,13.4-30.53,11.22-4.93-13.4,12.66-4.65-1.73-4.69-4.75,1.75-11.1-30.19,18.49-6.8-1.04-2.83,2.83-1.04,12.14,33.02ZM1010.79,346.56l1.41,3.84,15.66-5.76-1.41-3.84-15.66,5.76ZM1021.79,361.83l1.72,4.69,6.22-2.29-1.73-4.69-6.22,2.29Z"/><path class="cls-1" d="M1051.86,410.11l-40.26,20.16-3.3-14.14,31.5-15.83-35.24-.19-.83-3.58,41.93.23-.66-2.82,2.93-.69,3.93,16.83ZM1034.09,428.86l-1.63-6.98,2.93-.68,1.63,6.98,18.83-4.4,3.24,13.9-43.99,10.27-3.24-13.9,22.23-5.19Z"/><path class="cls-1" d="M1033.05,471.45l1.56,14.19-13.59,1.5-7.43-8.09-.36-3.29,6.92,3.42-.69-6.23,13.59-1.49Z"/><path class="cls-1" d="M1044.61,550.3l.08-5-21.62-.35c-1.44-5.41-1.35-10.77.26-16.08,1.61-5.32,1.7-10.68.26-16.08l39.57.64.05-3.01,3.01.05-.57,35.17-17.95-.29-.08,5,19.33.31-.23,14.27-45.17-.73.23-14.27,22.83.37ZM1026.35,528.92c-.09.32-.17.65-.26.99-.09.34-.17.69-.26,1.05l37.04.6.07-4.1-36.02-.58c-.09.32-.18.65-.29.99s-.2.69-.29,1.05Z"/><path class="cls-1" d="M1061.18,615.22l-1.84,14.16-44.8-5.83,1.84-14.16,44.8,5.83ZM1060.45,610.08l-22.16-2.88,2.31-17.74-16.55-2.15c-.13.35-.25.69-.37,1.01-.12.33-.27.66-.43,1.01-1.1,2.53-1.83,5.19-2.19,7.98s-.34,5.54.08,8.27l-2.99-.39c-.42-2.73-.44-5.48-.08-8.27s1.09-5.45,2.19-7.98,1.83-5.19,2.19-7.98c.36-2.79.34-5.54-.08-8.27l23.06,3-2.31,17.74,16.19,2.11,2.31-17.74,2.99.39-4.15,31.9Z"/><path class="cls-1" d="M1001.81,679.8c.03-2.19.15-4.25.38-6.19.23-1.93.58-3.81,1.05-5.64.47-1.83,1.07-3.64,1.8-5.44.73-1.8,1.62-3.67,2.65-5.6,1.04-1.93,1.92-3.8,2.65-5.6.73-1.8,1.34-3.62,1.81-5.44.47-1.83.82-3.71,1.05-5.64.23-1.93.36-3.99.38-6.18l13.88,3.57-3.56,13.82-9.57-2.46c-.45,1.42-.97,2.84-1.56,4.26-.59,1.42-1.32,2.9-2.16,4.42-1.03,1.93-1.92,3.8-2.65,5.6-.73,1.8-1.33,3.62-1.81,5.44-.47,1.83-.82,3.71-1.05,5.64-.23,1.93-.35,3.99-.38,6.18l-2.92-.75ZM1021.06,689.11l-2.92-.75,14.02-54.48,2.92.75-14.02,54.48ZM1036.74,654.77l-8.21,31.91-2.92-.75,11.77-45.73,14.52,3.74.75-2.92,2.92.75-4.31,16.74-14.52-3.74Z"/><path class="cls-1" d="M973.09,752.48c.72-4.2,1.98-8.38,3.79-12.54s3.99-7.94,6.55-11.34c2.56-3.4,4.75-7.18,6.55-11.34,1.8-4.16,3.06-8.34,3.79-12.54l2.76,1.2c-.17.89-.35,1.79-.55,2.71s-.43,1.83-.69,2.72l8.02,3.47,2.18-5.03,2.76,1.2-20.68,47.76-2.76-1.2,2.18-5.03-9.89-4.28c-.26.9-.48,1.79-.67,2.69-.19.9-.38,1.82-.56,2.74l-2.76-1.2ZM986.19,729.8c-1.22,1.61-2.39,3.39-3.48,5.32l9.95,4.31,4.98-11.5-7.96-3.45c-1.07,1.86-2.23,3.63-3.48,5.32ZM1019.31,755.62l-5.67,13.1-10.28-4.45-2.25,5.2-2.76-1.2,2.25-5.2-10.17-4.4,5.67-13.1,23.22,10.05ZM1008.97,747.67c-7.59-3.29-9.06-10.31-4.4-21.07,4.66-10.76,10.78-14.5,18.37-11.21,7.59,3.29,9.06,10.31,4.4,21.07-4.66,10.76-10.78,14.5-18.37,11.21ZM1017.33,728.38c-1.73-.75-3.18-1.29-4.35-1.62s-2.13-.51-2.89-.53c-.76-.02-1.35.11-1.77.38s-.75.67-.97,1.19c-.21.48-.27.98-.19,1.49.08.52.39,1.04.92,1.58.53.54,1.32,1.12,2.36,1.75,1.04.62,2.43,1.31,4.16,2.06,1.73.75,3.18,1.29,4.35,1.62s2.13.51,2.89.53c.76.02,1.35-.11,1.78-.41.43-.29.76-.68.96-1.16.22-.52.29-1.02.2-1.52-.09-.5-.4-1.02-.94-1.55-.53-.54-1.32-1.12-2.36-1.75s-2.43-1.31-4.16-2.06Z"/><path class="cls-1" d="M997.39,795.56l-9.97-5.86-9.15,15.58,9.97,5.86-7.23,12.31-25.14-14.76,8.17-13.92-10.02-5.89c-2.1,2.86-3.97,5.89-5.61,9.07-1.64,3.18-2.96,6.39-3.97,9.61l-2.6-1.52c1.36-4.37,3.28-8.68,5.77-12.92,2.49-4.24,5.31-8.02,8.47-11.34,3.16-3.31,5.98-7.09,8.47-11.34,2.49-4.24,4.41-8.55,5.77-12.92l2.6,1.52c-1.01,3.23-2.35,6.43-4.01,9.62-1.66,3.19-3.55,6.22-5.65,9.08l8,4.7,8.2-13.97,22.54,13.23,1.52-2.6,2.6,1.52-8.75,14.91ZM965.7,797.91l9.97,5.86,9.15-15.58-9.97-5.86-9.15,15.58Z"/><path class="cls-1" d="M951.38,866.33l-8.67,11.34-15.36-11.74-3.44,4.5-2.39-1.83,3.44-4.5-18.14-13.86,8.67-11.34,35.89,27.44ZM961.06,846.43l-28.62-21.88c-.28.24-.56.47-.83.69-.27.22-.56.44-.88.66-2.22,1.64-4.18,3.58-5.88,5.81-1.71,2.23-3.06,4.64-4.07,7.2l-2.39-1.83c1-2.57,2.36-4.97,4.07-7.2,1.71-2.23,3.67-4.17,5.88-5.81,2.22-1.64,4.18-3.58,5.89-5.81s3.06-4.63,4.07-7.2l31.44,24.03,1.83-2.39,2.39,1.83-21.36,27.95-2.39-1.83,10.87-14.21Z"/><path class="cls-1" d="M878.57,911.72l8.66-8.29,2.08,2.18-8.66,8.29,13.37,13.97-10.31,9.87-31.23-32.64,10.31-9.87,15.78,16.49ZM907.52,908.86l-24.9-26.02c-.32.19-.63.38-.93.55-.3.18-.63.35-.97.51-2.44,1.28-4.68,2.89-6.71,4.84-2.03,1.94-3.74,4.11-5.13,6.49l-2.08-2.18c1.39-2.38,3.1-4.55,5.13-6.49,2.03-1.94,4.27-3.55,6.71-4.84,2.44-1.28,4.68-2.89,6.71-4.84,2.03-1.94,3.74-4.11,5.13-6.49l27.36,28.59,2.18-2.08,2.08,2.18-25.41,24.32-2.08-2.18,12.92-12.37Z"/><path class="cls-1" d="M828.77,978.97l-11.71,8.16-25.14-36.07,11.71-8.16,25.14,36.07ZM834.1,938.25l10.03-6.99,1.72,2.47-31.53,21.97-1.72-2.47,9.78-6.82-7.78-11.17,11.71-8.16,7.78,11.17ZM831.59,975.31l-1.72-2.47,14.68-10.23-8.75-12.55-15.17,10.57-1.72-2.47,26.88-18.74,10.47,15.02,2.47-1.72,1.72,2.47-28.86,20.11Z"/><path class="cls-1" d="M749.66,993.53l-4.53-8.57,28.59-15.13-1.46-2.77c-1.35.62-2.75,1.19-4.2,1.71-1.45.52-3.03.98-4.72,1.37-2.13.53-4.1,1.14-5.93,1.81-1.83.67-3.57,1.45-5.24,2.33-1.67.88-3.29,1.89-4.87,3.02-1.58,1.13-3.19,2.43-4.83,3.88l-1.41-2.66c1.64-1.46,3.25-2.75,4.83-3.88,1.58-1.13,3.21-2.14,4.87-3.02,1.67-.88,3.42-1.66,5.24-2.33,1.83-.67,3.8-1.27,5.93-1.81,2.13-.53,4.1-1.14,5.93-1.81s3.57-1.45,5.24-2.33c1.67-.88,3.29-1.89,4.88-3.02,1.58-1.13,3.19-2.43,4.83-3.88l4.96,9.37-28.59,15.13,1.72,3.25,28.59-15.13,1.41,2.66-41.21,21.8ZM748.36,1001.38l-1.41-2.66,49.73-26.31,1.41,2.66-49.73,26.31ZM761.49,1015.89l-4.37-8.25,28.59-15.13-1.55-2.93-29.12,15.41-1.41-2.66,41.74-22.08,4.37,8.25-28.59,15.13,1.55,2.93,28.59-15.13,1.41,2.66-41.21,21.8Z"/><path class="cls-1" d="M696.82,1042.52l-13.5,4.63-6.27-18.29-5.36,1.84-.98-2.85,5.36-1.84-7.41-21.59,13.5-4.63,14.65,42.73ZM711.41,1017.85l-3.65,1.25,5.59,16.29-13.39,4.59-13.81-40.28c4.6-3.19,9.67-4.93,15.21-5.22,5.55-.29,10.62-2.03,15.21-5.22l12.84,37.43,2.85-.98.98,2.85-16.24,5.57-5.59-16.3ZM702.34,997.33l-.99.09c-.33.03-.66.06-.99.08l6.43,18.75,3.65-1.25-6.11-17.83c-.33.03-.66.06-.99.09l-.99.09Z"/><path class="cls-1" d="M633.7,1058.59l-13.97,2.94-3.98-18.92-5.54,1.17-.62-2.95,5.54-1.17-4.7-22.34,13.97-2.94,9.3,44.21ZM637.13,1056.45l-4.6-21.87,17.5-3.68-3.44-16.33c-.37,0-.73,0-1.08-.02s-.72-.03-1.09-.08c-2.75-.2-5.5-.01-8.25.57-2.75.58-5.34,1.51-7.78,2.81l-.62-2.95c2.44-1.29,5.03-2.23,7.78-2.81,2.75-.58,5.5-.77,8.25-.57s5.5.01,8.25-.57c2.75-.58,5.34-1.51,7.78-2.81l4.79,22.75-17.51,3.68,3.36,15.97,17.5-3.68.62,2.95-31.48,6.62Z"/><path class="cls-1" d="M588.41,1063.78l-.99-11.52-18,1.54.99,11.52-14.22,1.22-2.48-29.05,16.08-1.38-.99-11.58c-3.55-.06-7.1.16-10.64.67-3.54.5-6.92,1.28-10.14,2.32l-.26-3c4.35-1.42,8.98-2.34,13.88-2.76,4.9-.42,9.62-.3,14.15.36,4.53.66,9.25.78,14.15.36s9.53-1.34,13.88-2.76l.26,3c-3.22,1.04-6.61,1.8-10.17,2.29-3.57.49-7.12.7-10.68.64l.79,9.24,16.14-1.38,2.23,26.05,3-.26.26,3-17.22,1.47ZM568.18,1039.27l.99,11.52,18-1.54-.99-11.52-18,1.54Z"/><path class="cls-1" d="M507.97,1065.94l.17-5-5-.17-.22,6.38-14.27-.5,1.13-32.51,14.27.5-.47,13.48,5,.17.18-5.06,32.14,1.12-.69,19.68,3.01.1-.11,3.01-35.15-1.23ZM489.59,1022.69c4.33-.89,8.68-1.26,13.06-1.11,4.37.15,8.69.83,12.95,2.02,4.26,1.19,8.57,1.87,12.95,2.02,4.37.15,8.73-.22,13.06-1.11l-.58,16.67-14.27-.5.42-12.16c-1.96-.11-3.92-.32-5.88-.63-1.96-.31-3.89-.74-5.8-1.29-4.26-1.19-8.57-1.87-12.95-2.02-4.37-.15-8.73.22-13.06,1.11l.11-3.01ZM508.48,1051.31l-5-.17-.23,6.62,5,.17.23-6.62ZM526.77,1046.89l-4.09-.14-.58,16.67,4.09.14.58-16.67Z"/><path class="cls-1" d="M441.77,1037.47l7.08,1.12-.47,2.97-7.08-1.12-3.01,19.1-14.1-2.22,7.03-44.62,14.1,2.22-3.55,22.55ZM452.46,1060.98l-3.53-44.89,14.34,2.26,2.81,35.14,13.43-32.58,3.63.57-15.99,38.76,2.86.45-.47,2.97-17.08-2.69Z"/><path class="cls-1" d="M419.06,1024.58l-13.86-3.43,3.29-13.27,10.16-4.19,3.22.8-5.6,5.32,6.08,1.5-3.29,13.27Z"/><path class="cls-1" d="M333.15,1029.14l-13.35-5.07,15.61-41.1,13.34,5.07-15.61,41.1ZM360.63,1014.45c2.89,1.1,5.26,2.29,7.12,3.57,1.85,1.29,3.25,2.64,4.19,4.07.94,1.43,1.46,2.92,1.55,4.49.09,1.56-.18,3.19-.82,4.87-.64,1.69-1.52,3.09-2.62,4.19-1.11,1.1-2.49,1.88-4.14,2.33-1.65.44-3.6.53-5.84.26-2.24-.27-4.8-.96-7.69-2.05-2.89-1.1-5.26-2.29-7.12-3.57s-3.25-2.64-4.19-4.07c-.94-1.43-1.45-2.93-1.55-4.49-.09-1.56.18-3.19.82-4.87.64-1.69,1.52-3.09,2.62-4.19,1.11-1.1,2.49-1.88,4.14-2.33,1.65-.45,3.6-.54,5.84-.26,2.24.27,4.8.95,7.69,2.05ZM369.77,1010.57l11.43,4.34-1.07,2.82-35.92-13.65,1.07-2.82,11.15,4.24,4.83-12.73,13.35,5.07-4.83,12.72ZM353.45,1033.37c.45.17.91.21,1.37.13.46-.08.93-.38,1.4-.89.47-.51.97-1.26,1.5-2.26.53-1,1.1-2.31,1.72-3.92.61-1.62,1.05-2.97,1.32-4.07.27-1.1.39-2,.38-2.69-.02-.69-.17-1.22-.46-1.59-.29-.37-.66-.64-1.11-.81-.45-.17-.91-.21-1.37-.13-.46.08-.93.38-1.4.89-.47.51-.97,1.26-1.5,2.26-.53,1-1.1,2.31-1.72,3.92-.61,1.61-1.05,2.97-1.32,4.07-.27,1.1-.39,2-.38,2.69.02.69.17,1.22.46,1.59.29.37.66.64,1.11.81Z"/><path class="cls-1" d="M264.71,994.34l7.51-14.22,28.6,15.1,4.7-8.9-29.14-15.38,1.41-2.66,14.81,7.82,5.43-10.28c-2.96-1.97-6.06-3.7-9.32-5.19-3.25-1.49-6.52-2.67-9.78-3.53l1.41-2.66c4.43,1.16,8.82,2.88,13.17,5.18,4.35,2.3,8.25,4.95,11.71,7.95,3.45,3.01,7.36,5.66,11.71,7.95,4.35,2.3,8.74,4.02,13.17,5.18l-1.41,2.66c-3.27-.86-6.53-2.05-9.8-3.57-3.26-1.52-6.37-3.26-9.33-5.23l-4.33,8.2,14.33,7.56-7.51,14.22-28.6-15.1-4.7,8.9,28.6,15.1-1.41,2.66-41.23-21.76Z"/><path class="cls-1" d="M203.82,933.69l14.87,11.09,2.16-2.9-16.8-12.53,1.8-2.41,45.09,33.64-1.8,2.41-16.85-12.57-2.16,2.9,14.92,11.13-1.8,2.41-5.31-3.96-5.37,7.19,4.83,3.6-1.8,2.41-40.26-30.04,1.8-2.41,4.83,3.6,5.37-7.19-5.31-3.96,1.8-2.41ZM211.55,927.36l5.98-8.01,25.92,19.34,2.05-2.75c-1.14-.95-2.26-1.97-3.35-3.06-1.09-1.09-2.18-2.31-3.27-3.68-1.39-1.69-2.79-3.22-4.17-4.58-1.39-1.36-2.84-2.61-4.35-3.74-1.51-1.13-3.12-2.16-4.82-3.11-1.7-.94-3.56-1.84-5.58-2.7l1.8-2.41c2.02.86,3.88,1.75,5.58,2.7,1.7.94,3.31,1.98,4.82,3.11,1.51,1.13,2.96,2.38,4.35,3.74,1.39,1.36,2.78,2.89,4.17,4.58,1.39,1.69,2.79,3.22,4.17,4.58,1.39,1.36,2.84,2.61,4.35,3.74,1.51,1.13,3.12,2.17,4.82,3.11,1.7.94,3.56,1.84,5.58,2.7l-6.52,8.74-25.92-19.34-2.38,3.19,25.92,19.34-1.8,2.41-37.37-27.88ZM226.49,954.37l-7.72-5.76-5.37,7.19,7.72,5.76,5.37-7.19Z"/><path class="cls-1" d="M155.89,911.55l-8.8-8.4,7.74-8.1-4.09-3.91,2.08-2.18,4.09,3.91,7.65-8.02,8.8,8.4-17.47,18.29ZM158.32,911.97l2.08-2.18,4.01,3.83,9.66-18.84,8.06,7.7-6.81,13.32,13.08-7.33,5.4,5.16-6.68,13.45,12.95-7.46,2.48,2.37-18.38,10.52,4.01,3.83-2.08,2.18-27.79-26.54ZM178.75,890.66l26.01,24.83-2.08,2.18-36.33-34.69,11.11-11.63,10.32,9.86-9.03,9.45ZM172.34,921.19l3.92,3.74,4.11-8.23-8.03,4.49Z"/><path class="cls-1" d="M102.05,848.64l-8.21-10.71,26.78-20.51,8.21,10.71-26.78,20.51ZM115.57,864.01l-10.55-13.77,2.39-1.83,3.08,4.02,9.52-7.29-3.44-4.49,2.39-1.83,10.92,14.25-14.3,10.95ZM130.6,854.01l10.11,13.2-11.91,9.12,1.47,1.91-2.39,1.83-11.39-14.87,2.39-1.83,2.45,3.2,9.52-7.29-2.64-3.44,2.39-1.83ZM128.38,810.71c3.31,2.67,6.29,5.73,8.92,9.17s4.81,7.11,6.53,11c1.72,3.9,3.9,7.56,6.53,11,2.64,3.44,5.61,6.5,8.92,9.17l-11.38,8.72-5.06-6.6-3.35,2.56,7.44,9.71-2.39,1.83-23.74-30.98,2.39-1.83,7.62,9.95,7.03-5.38,5.06,6.6,4.16-3.19c-1.08-1.55-2.11-3.13-3.07-4.75-.96-1.62-1.81-3.28-2.56-4.98-1.72-3.89-3.9-7.56-6.53-11s-5.61-6.5-8.92-9.17l2.39-1.83Z"/><path class="cls-1" d="M67.96,795.55l-7.24-12.3,16.66-9.81-2.87-4.88,2.6-1.53,2.87,4.88,19.67-11.58,7.24,12.3-38.93,22.91ZM82.75,812.01l31.04-18.27c-.11-.35-.22-.7-.33-1.03s-.2-.69-.27-1.06c-.69-2.67-1.74-5.22-3.17-7.64-1.43-2.42-3.14-4.58-5.14-6.48l2.6-1.53c2,1.9,3.72,4.06,5.14,6.48,1.43,2.42,2.48,4.97,3.17,7.64.69,2.67,1.74,5.22,3.17,7.64,1.43,2.42,3.14,4.58,5.14,6.48l-34.1,20.07,1.53,2.59-2.6,1.53-17.84-30.32,2.6-1.53,9.07,15.42Z"/><path class="cls-1" d="M62.35,748.29l-13.12-30.22,2.76-1.2,18.8,43.32-13.76,5.97,1.2,2.76-2.76,1.2-6.88-15.86,13.76-5.97ZM53.63,711.56l2.76-1.2,22.4,51.6-2.76,1.2-22.4-51.61ZM74.53,707.08c1.33,1.75,2.49,3.45,3.5,5.11,1.01,1.66,1.89,3.36,2.64,5.09.75,1.73,1.39,3.53,1.92,5.41.53,1.87.98,3.89,1.35,6.05s.82,4.18,1.35,6.05c.53,1.87,1.17,3.67,1.92,5.4.75,1.73,1.63,3.43,2.64,5.09,1.01,1.66,2.17,3.37,3.5,5.11l-13.15,5.71-5.68-13.09,9.06-3.93c-.52-1.39-.98-2.84-1.38-4.32-.41-1.49-.74-3.09-1.01-4.82-.37-2.16-.82-4.18-1.35-6.05s-1.17-3.67-1.92-5.41c-.75-1.73-1.63-3.43-2.64-5.09-1.01-1.66-2.17-3.37-3.5-5.11l2.76-1.2Z"/><path class="cls-1" d="M45.08,670.11l-8.24-31.9,2.92-.75,11.82,45.72-24.73,6.39.75,2.92-2.92.75-4.33-16.74,24.73-6.39ZM52.28,629.86c2.13,4.05,3.8,8.46,5.04,13.22,1.23,4.76,1.9,9.43,2,14.01.1,4.58.77,9.25,2,14.01,1.23,4.76,2.91,9.17,5.03,13.23l-2.92.75c-2.13-4.05-3.8-8.46-5.03-13.23-1.23-4.76-1.9-9.43-2-14.01-.1-4.58-.77-9.25-2-14.01-1.23-4.76-2.91-9.17-5.03-13.23l2.92-.75Z"/><path class="cls-1" d="M2.75,591.91l-1.75-13.38,25.08-3.29,1.75,13.38-25.08,3.29ZM9.99,613.37l-2.99.39-2.14-16.3,22.51-2.95,1.6,12.18-19.53,2.56.54,4.12ZM12.43,631.95l-2.99.39-2.14-16.3,22.52-2.95,1.6,12.18-19.53,2.56.54,4.12ZM44.59,572.81c1.59,4.12,2.67,8.31,3.22,12.55.56,4.24.6,8.56.12,12.95-.48,4.4-.44,8.71.12,12.95.56,4.24,1.63,8.42,3.22,12.55l-15.95,2.09-6.69-51,15.95-2.09ZM44.95,598.71c.19-1.97.29-3.92.29-5.87,0-1.95-.09-3.88-.3-5.79l-11.47,1.5,3.01,22.93,8.48-1.11c-.43-3.91-.44-7.8-.01-11.66Z"/><path class="cls-1" d="M14.8,515.13c2.29-.04,4.37.29,6.25.98s3.49,1.94,4.85,3.75c1.35,1.81,2.42,4.26,3.19,7.36.77,3.1,1.2,7.06,1.28,11.88.08,4.82-.22,8.79-.89,11.91-.67,3.12-1.66,5.61-2.95,7.46-1.3,1.85-2.87,3.15-4.73,3.9-1.86.75-3.93,1.15-6.22,1.18-2.29.04-4.37-.29-6.25-.98s-3.5-1.94-4.85-3.75c-1.35-1.8-2.42-4.26-3.19-7.36-.77-3.1-1.2-7.06-1.28-11.88-.08-4.82.22-8.79.89-11.91.67-3.12,1.66-5.61,2.95-7.46,1.3-1.85,2.87-3.15,4.73-3.9,1.85-.75,3.93-1.15,6.22-1.19ZM15.35,549.4c1.81-.03,3.45-.26,4.93-.68,1.48-.42,2.74-1.06,3.79-1.9,1.05-.84,1.87-1.9,2.45-3.17.58-1.27.86-2.78.83-4.5-.03-1.73-.35-3.22-.98-4.47-.62-1.26-1.47-2.29-2.55-3.09-1.08-.8-2.36-1.4-3.85-1.77-1.49-.38-3.14-.55-4.95-.52-1.81.03-3.45.26-4.93.68s-2.74,1.06-3.79,1.9c-1.05.84-1.87,1.9-2.45,3.17-.58,1.27-.86,2.78-.83,4.5.03,1.73.35,3.22.98,4.47.62,1.26,1.47,2.29,2.55,3.09,1.08.81,2.36,1.4,3.85,1.78,1.49.38,3.14.55,4.95.52ZM43.34,510.75c1.12,4.44,1.71,9.12,1.79,14.04.08,4.92-.37,9.61-1.34,14.09-.97,4.47-1.42,9.17-1.34,14.09.08,4.92.68,9.6,1.79,14.04l-3.01.05c-1.12-4.44-1.71-9.12-1.79-14.04-.08-4.92.37-9.61,1.34-14.09.97-4.47,1.42-9.17,1.34-14.09-.08-4.92-.68-9.6-1.79-14.04l3.01-.05Z"/><path class="cls-1" d="M7.08,451.37l15.98,1.78-3.59,32.15,10,1.12,3.66-32.74,2.99.33-1.86,16.64,11.55,1.29c.75-3.47,1.22-6.99,1.42-10.57.2-3.57.1-7.04-.29-10.4l2.99.33c.54,4.55.54,9.26,0,14.15-.55,4.89-1.58,9.49-3.12,13.8-1.53,4.31-2.57,8.92-3.12,13.8-.55,4.89-.55,9.61,0,14.15l-2.99-.33c-.39-3.36-.48-6.83-.26-10.42.22-3.59.7-7.12,1.46-10.6l-9.22-1.03-1.8,16.1-15.98-1.78,3.59-32.15-10-1.12-3.59,32.15-2.99-.33,5.17-46.33Z"/><path class="cls-1" d="M19.97,405.01l34.74,9.51c.17-.33.34-.64.51-.95.17-.31.36-.62.57-.94,1.44-2.36,2.52-4.89,3.27-7.6s1.1-5.45,1.06-8.2l2.9.8c.04,2.76-.32,5.49-1.06,8.2-.74,2.71-1.83,5.24-3.27,7.6s-2.52,4.89-3.27,7.6c-.74,2.71-1.1,5.45-1.06,8.2l-38.17-10.45-.8,2.91-2.9-.8,9.29-33.93,2.91.8-4.72,17.25ZM21.45,382.93l3.77-13.77,18.65,5.11,1.5-5.46,2.9.79-1.49,5.46,22.02,6.03-3.77,13.77-43.57-11.93Z"/><path class="cls-1" d="M43.51,325.78l20.67,8.5-6.8,16.55,15.43,6.34c.21-.3.42-.6.62-.88.2-.29.43-.57.68-.86,1.71-2.16,3.1-4.54,4.17-7.14,1.07-2.6,1.75-5.27,2.06-8.01l2.79,1.15c-.3,2.74-.99,5.41-2.06,8.01-1.07,2.6-2.46,4.98-4.17,7.14-1.71,2.16-3.11,4.54-4.17,7.14-1.07,2.6-1.75,5.27-2.06,8.01l-21.5-8.84,6.8-16.55-15.1-6.21-6.8,16.55-2.79-1.15,12.23-29.75ZM44.13,320.63l5.43-13.2,41.78,17.18-5.43,13.2-41.78-17.18Z"/><path class="cls-1" d="M80.73,253.19l14.02,7.89-15.86,28.19,8.77,4.93,16.16-28.71,2.62,1.48-8.21,14.59,10.13,5.7c2.05-2.9,3.86-5.96,5.44-9.17,1.58-3.21,2.84-6.44,3.79-9.68l2.62,1.48c-1.28,4.4-3.12,8.74-5.53,13.02-2.41,4.29-5.17,8.12-8.26,11.49-3.1,3.37-5.85,7.2-8.26,11.49-2.41,4.29-4.26,8.63-5.53,13.02l-2.62-1.48c.95-3.24,2.23-6.48,3.83-9.7,1.6-3.22,3.43-6.28,5.48-9.18l-8.08-4.55-7.95,14.12-14.02-7.89,15.86-28.19-8.77-4.93-15.86,28.19-2.63-1.48,22.86-40.63Z"/><path class="cls-1" d="M121.8,224.41l2.39-3.03-13.53-10.67,8.77-11.11,33.44,26.37c-2.13,5.17-5.45,9.38-9.96,12.63-4.51,3.25-7.83,7.46-9.96,12.63l-31.07-24.51-1.87,2.36-2.36-1.86,10.63-13.48,13.53,10.67ZM120.69,195.77l8.84-11.21,15.18,11.97,3.51-4.45,2.36,1.87-3.51,4.45,17.92,14.14-8.84,11.21-35.47-27.98ZM140.54,236.74c.26-.2.52-.41.79-.61.26-.2.52-.4.79-.61l-15.56-12.27-2.39,3.03,14.8,11.67c.26-.2.52-.4.79-.61.26-.2.52-.41.79-.61Z"/><path class="cls-1" d="M177.55,165.26l2.12,2.14-23.26,23.08-13.87-13.98-2.14,2.12-2.12-2.14,24.97-24.78,2.12,2.14-12.7,12.6,11.75,11.84,13.12-13.02ZM186.73,169.98l-25.52,25.33-2.12-2.14,35.66-35.39,11.33,11.42-10.13,10.06-9.21-9.28ZM164.96,148.05l10.13-10.06,7.89,7.95,4.02-3.99,2.12,2.14-4.02,3.99,7.81,7.87-10.13,10.05-17.82-17.96Z"/><path class="cls-1" d="M230.79,104.36c.81,1.05,1.27,2.18,1.38,3.39.11,1.22-.32,2.65-1.27,4.3s-2.56,3.6-4.81,5.83c-2.26,2.24-5.35,4.88-9.28,7.93-3.93,3.05-7.26,5.4-9.98,7.03-2.72,1.63-5.01,2.71-6.84,3.22-1.84.51-3.33.57-4.49.17s-2.13-1.13-2.95-2.17-1.27-2.18-1.38-3.39c-.11-1.21.32-2.65,1.27-4.3.95-1.65,2.56-3.6,4.81-5.83,2.26-2.23,5.35-4.88,9.28-7.93,3.93-3.05,7.26-5.4,9.98-7.03,2.72-1.63,5-2.7,6.84-3.22,1.84-.51,3.33-.57,4.49-.17,1.15.4,2.13,1.13,2.95,2.17ZM240.72,110.76l1.85,2.38-44.43,34.5-1.85-2.38,44.43-34.5ZM203.72,125.38c.44.57.99,1.01,1.64,1.32.65.31,1.43.43,2.34.36.91-.07,1.96-.39,3.15-.96,1.19-.57,2.56-1.45,4.11-2.66,1.55-1.21,2.75-2.31,3.59-3.32.84-1.01,1.41-1.95,1.71-2.81.29-.86.37-1.65.23-2.35-.14-.7-.43-1.34-.88-1.91-.44-.57-.99-1.01-1.64-1.32-.65-.31-1.43-.43-2.34-.36-.91.07-1.96.39-3.15.96-1.19.57-2.56,1.45-4.11,2.66-1.55,1.21-2.75,2.32-3.59,3.33-.84,1.01-1.41,1.95-1.71,2.81-.29.87-.37,1.65-.23,2.35.14.71.43,1.34.88,1.91ZM240.83,118.76l6.13,7.9-25.55,19.84,2.11,2.71c1.22-.85,2.5-1.65,3.85-2.41,1.34-.76,2.81-1.49,4.42-2.17,2-.89,3.84-1.83,5.53-2.8,1.68-.98,3.27-2.04,4.76-3.2s2.92-2.43,4.28-3.82c1.36-1.39,2.72-2.94,4.08-4.66l1.85,2.38c-1.36,1.72-2.72,3.27-4.08,4.66-1.36,1.39-2.79,2.66-4.28,3.82-1.49,1.16-3.08,2.22-4.76,3.2-1.68.97-3.52,1.91-5.53,2.8-2,.89-3.84,1.83-5.53,2.8-1.68.98-3.27,2.04-4.76,3.2-1.49,1.16-2.92,2.43-4.28,3.82s-2.72,2.94-4.08,4.66l-6.69-8.61,25.55-19.84-2.44-3.14-25.55,19.84-1.85-2.38,36.82-28.59Z"/><path class="cls-1" d="M282.09,64.86l9.53,17.24-28.15,15.56-8.07-14.6-2.64,1.46-1.46-2.64,30.78-17.02ZM320.09,92.51c-3.26,2.99-6.8,5.55-10.63,7.67-3.83,2.12-7.88,3.76-12.14,4.92-4.27,1.17-8.31,2.81-12.14,4.92-3.83,2.12-7.37,4.67-10.63,7.67l-5.57-10.07,32.52-17.98-2.21-4.01-32.52,17.98-1.46-2.64,45.02-24.89,5.13,9.28-32.52,17.98,1.92,3.48c1.74-.92,3.53-1.75,5.37-2.49,1.84-.74,3.72-1.37,5.64-1.88,4.27-1.17,8.31-2.81,12.14-4.92,3.83-2.12,7.37-4.67,10.63-7.67l1.46,2.64ZM274.3,88.23l3.58-1.98-6.62-11.97-3.58,1.98,6.62,11.97ZM285.8,61.22l12.49-6.91,10.78,19.5-12.49,6.91-10.78-19.5Z"/><path class="cls-1" d="M341.05,37.72l1.87,4.64,4.64-1.87-2.38-5.92,13.24-5.33,12.14,30.17-13.24,5.33-5.04-12.52-4.64,1.87,1.89,4.69-29.84,12.01-7.35-18.27-2.79,1.12-1.12-2.79,32.63-13.13ZM375.39,69.81c-3.6,2.57-7.43,4.68-11.49,6.31-4.06,1.63-8.28,2.77-12.65,3.4-4.38.64-8.59,1.77-12.65,3.4-4.06,1.63-7.89,3.74-11.49,6.31l-6.23-15.48,13.24-5.33,4.54,11.29c1.84-.7,3.72-1.3,5.63-1.81,1.91-.51,3.86-.9,5.82-1.17,4.38-.64,8.59-1.77,12.65-3.4,4.06-1.63,7.89-3.74,11.49-6.31l1.12,2.79ZM331.58,62.76l3.8-1.53-6.23-15.48-3.8,1.53,6.23,15.48ZM346.51,51.3l4.64-1.87-2.47-6.15-4.64,1.87,2.47,6.15Z"/><path class="cls-1" d="M393.84,19.79l21.37,39.63-14.03,3.73-16.77-31,.88,35.23-3.55.94-1.04-41.92-2.79.74-.77-2.91,16.71-4.44ZM413.12,36.98l-6.93,1.84-.77-2.91,6.93-1.84-4.96-18.69,13.8-3.67,11.6,43.66-13.8,3.66-5.86-22.06Z"/><path class="cls-1" d="M439.15,39.6l14.06-2.46,2.36,13.47-7.6,7.93-3.26.57,2.97-7.12-6.17,1.08-2.36-13.47Z"/></g></svg>