<svg width="178" height="21" viewBox="0 0 178 21" fill="none" xmlns="http://www.w3.org/2000/svg">
<path fill-rule="evenodd" clip-rule="evenodd" d="M27.532 16.8807C31.3654 19.2264 35.5635 19.4398 38.2953 18.9074L37.9127 16.9443C35.5856 17.3979 31.9132 17.2169 28.5759 15.1747C25.2806 13.1582 22.1853 9.24897 21.0928 1.99995L19.1056 2.0921C18.9476 4.86549 17.8964 8.94621 15.3033 12.1337C12.7561 15.2647 8.66916 17.6067 2.20794 16.9313L2 18.9204C9.13877 19.6667 13.8852 17.0459 16.8547 13.3959C18.467 11.414 19.5395 9.15083 20.2067 7.0031C21.8125 11.9281 24.5214 15.0384 27.532 16.8807Z" fill="#8FC3EB" stroke="#8FC3EB" stroke-width="2"/>
<path fill-rule="evenodd" clip-rule="evenodd" d="M119.532 16.8807C123.365 19.2264 127.564 19.4398 130.295 18.9074L129.913 16.9443C127.586 17.3979 123.913 17.2169 120.576 15.1747C117.281 13.1582 114.185 9.24897 113.093 1.99995L111.106 2.0921C110.948 4.86549 109.896 8.94621 107.303 12.1337C104.756 15.2647 100.669 17.6067 94.2079 16.9313L94 18.9204C101.139 19.6667 105.885 17.0459 108.855 13.3959C110.467 11.414 111.54 9.15083 112.207 7.0031C113.812 11.9281 116.521 15.0384 119.532 16.8807Z" fill="#8FC3EB" stroke="#8FC3EB" stroke-width="2"/>
<path fill-rule="evenodd" clip-rule="evenodd" d="M73.532 16.8807C77.3654 19.2264 81.5635 19.4398 84.2953 18.9074L83.9127 16.9443C81.5856 17.3979 77.9132 17.2169 74.5759 15.1747C71.2806 13.1582 68.1853 9.24897 67.0928 1.99995L65.1056 2.0921C64.9476 4.86549 63.8964 8.94621 61.3033 12.1337C58.7561 15.2647 54.6692 17.6067 48.2079 16.9313L48 18.9204C55.1388 19.6667 59.8852 17.0459 62.8547 13.3959C64.467 11.414 65.5395 9.15083 66.2067 7.0031C67.8125 11.9281 70.5214 15.0384 73.532 16.8807Z" fill="#8FC3EB" stroke="#8FC3EB" stroke-width="2"/>
<path fill-rule="evenodd" clip-rule="evenodd" d="M165.532 16.8807C169.365 19.2264 173.564 19.4398 176.295 18.9074L175.913 16.9443C173.586 17.3979 169.913 17.2169 166.576 15.1747C163.281 13.1582 160.185 9.24897 159.093 1.99995L157.106 2.0921C156.948 4.86549 155.896 8.94621 153.303 12.1337C150.756 15.2647 146.669 17.6067 140.208 16.9313L140 18.9204C147.139 19.6667 151.885 17.0459 154.855 13.3959C156.467 11.414 157.54 9.15083 158.207 7.0031C159.812 11.9281 162.521 15.0384 165.532 16.8807Z" fill="#8FC3EB" stroke="#8FC3EB" stroke-width="2"/>
</svg>
