<svg width="619" height="361" viewBox="0 0 619 361" fill="none" xmlns="http://www.w3.org/2000/svg">
<path d="M361.78 337.37C333.84 323.84 316.5 304.97 316.5 284.09M501.08 356.69C490.12 357.95 478.71 358.61 466.98 358.61M515.29 216.48C526.2 218.1 537.4 220.41 548.73 223.44M569.77 229.65C599.13 243.25 617.47 262.61 617.47 284.08C617.47 291.6 615.22 298.85 611.04 305.69C600.3 323.28 576.78 338.12 545.84 347.56C537.54 350.09 528.7 352.24 519.43 353.95M27.9137 337.441C23.1005 337.64 18.1098 337.566 13 337.199M22 309C33.0436 309 42 313.481 42 319C42 324.519 33.0436 329 22 329C10.9564 329 2 324.519 2 319C2 316.241 4.23755 313.734 7.86023 311.93M35.9998 337C50.0638 335.353 73.1944 328.847 53.2043 316M15.5 315C18.67 271.17 39.3 183.5 96.5 183.5C141.5 183.5 176.23 253.17 181.4 297C183.73 224.83 211.8 98.5 305.5 98.5C380.5 98.5 418.9 183.83 425.4 256C429.56 151.5 473.2 1.5 540 1.5M437.13 242.21C459.96 242.21 478.46 251.37 478.46 262.68C478.46 273.99 459.95 283.15 437.13 283.15C414.31 283.15 395.8 273.99 395.8 262.68C395.8 257.03 400.43 251.91 407.91 248.21M480.96 246.14C492.14 251.32 499.12 258.69 499.12 266.87C499.12 282.54 473.47 295.25 441.82 295.25C410.17 295.25 384.52 282.55 384.52 266.87M190.67 285.7C208.29 285.7 222.58 292.78 222.58 301.5C222.58 310.22 208.29 317.3 190.67 317.3C173.05 317.3 158.76 310.22 158.76 301.5C158.76 297.14 162.33 293.18 168.11 290.33M224.51 288.73C233.14 292.73 238.53 298.42 238.53 304.73C238.53 316.83 218.72 326.64 194.29 326.64C169.86 326.64 150.05 316.83 150.05 304.73M523.93 243.25C543.26 252.2 555.34 264.95 555.34 279.09C555.34 306.19 510.98 328.15 456.27 328.15C401.56 328.15 357.2 306.18 357.2 279.09" stroke="#8FC3EB" stroke-width="3"/>
</svg>
