<svg width="1440" height="1420" viewBox="0 0 1440 1420" fill="none" xmlns="http://www.w3.org/2000/svg">
<path d="M1108.74 1299.15C1149.44 1232.53 1151.65 1159.72 1113.67 1136.52C1075.7 1113.32 1011.92 1148.53 971.224 1215.15C930.525 1281.77 928.315 1354.59 966.288 1377.78C1004.26 1400.98 1068.04 1365.78 1108.74 1299.15Z" fill="#8FC3EB"/>
<path d="M975.712 1058.71C993.422 1093.42 1001.41 1128.91 1000.05 1158.22C998.692 1187.55 987.982 1210.58 968.392 1220.57C948.802 1230.57 923.872 1225.72 899.332 1209.61C874.802 1193.5 850.762 1166.19 833.062 1131.48C815.352 1096.77 807.352 1061.28 808.712 1031.96C810.072 1002.64 820.782 979.608 840.372 969.618C859.962 959.628 884.892 964.468 909.432 980.588C933.962 996.698 958.002 1024.01 975.702 1058.72L975.712 1058.71Z" stroke="#898989"/>
<path d="M826.321 825.857C873.431 869.377 882.881 935.497 847.731 973.547C812.581 1011.6 745.921 1007.42 698.811 963.897C651.701 920.377 642.251 854.257 677.401 816.207C712.551 778.157 779.211 782.337 826.321 825.857Z" stroke="#898989"/>
<path d="M679.681 702.317C735.561 733.717 758.601 798.547 731.331 847.087C704.061 895.617 636.701 909.667 580.821 878.277C524.941 846.877 501.901 782.047 529.171 733.507C556.441 684.977 623.801 670.917 679.681 702.317Z" stroke="#898989"/>
<path d="M549.071 616.177C602.301 646.077 623.231 709.717 595.951 758.267C568.671 806.817 503.441 822.037 450.211 792.137C396.981 762.227 376.051 698.597 403.331 650.047C430.611 601.497 495.841 586.277 549.071 616.177Z" stroke="#898989"/>
<path d="M417.411 719.99C446.783 667.715 427.279 601.001 373.848 570.98C320.417 540.959 253.293 559 223.921 611.275C194.55 663.551 214.054 730.265 267.485 760.286C320.915 790.306 388.04 772.266 417.411 719.99Z" fill="#8FC3EB"/>
<path d="M366.441 535.768C412.571 561.688 429.401 619.278 404.051 664.378C378.711 709.488 320.771 725.068 274.641 699.148C228.511 673.228 211.681 615.638 237.031 570.538C262.381 525.428 320.311 509.848 366.441 535.768Z" stroke="#898989"/>
<path d="M351.111 426.307C397.241 452.227 414.071 509.807 388.721 554.917C363.381 600.027 305.441 615.607 259.311 589.687C213.181 563.767 196.351 506.187 221.701 461.077C247.041 415.967 304.981 400.387 351.111 426.307Z" stroke="#898989"/>
<path d="M327.032 332.177C373.162 358.097 389.992 415.687 364.642 460.797C339.292 505.907 281.362 521.487 235.232 495.567C189.102 469.647 172.272 412.057 197.622 366.957C222.962 321.847 280.902 306.267 327.032 332.187V332.177Z" stroke="#898989"/>
<path d="M276.681 207.397C322.811 233.317 339.641 290.897 314.291 336.007C288.951 381.117 231.011 396.697 184.881 370.777C138.751 344.857 121.921 287.267 147.271 242.157C172.611 197.047 230.551 181.467 276.681 207.387V207.397Z" stroke="#898989"/>
<path d="M226.332 106.697C272.462 132.617 289.292 190.207 263.942 235.307C238.602 280.417 180.662 295.997 134.532 270.077C88.4016 244.157 71.5716 186.567 96.9216 141.457C122.262 96.3473 180.202 80.7673 226.332 106.687V106.697Z" stroke="#898989"/>
<path d="M214.037 176.458C239.521 131.102 222.595 73.2159 176.233 47.1666C129.87 21.1172 71.6268 36.7685 46.1428 82.1247C20.6588 127.481 37.5843 185.367 83.9469 211.416C130.309 237.465 188.553 221.814 214.037 176.458Z" fill="#8FC3EB"/>
<path d="M454.161 591.118C507.391 621.028 528.321 684.658 501.041 733.208C473.761 781.758 408.531 796.978 355.301 767.078C302.071 737.168 281.141 673.538 308.421 624.988C335.701 576.438 400.931 561.218 454.161 591.118Z" stroke="#898989"/>
<path d="M1224.67 1090.22C1256.53 1138.18 1238.95 1206 1185.26 1241.66C1131.56 1277.32 1062.24 1267.23 1030.39 1219.27C998.532 1171.3 1016.1 1103.49 1069.8 1067.83C1123.49 1032.16 1192.82 1042.26 1224.67 1090.22Z" stroke="#898989"/>
<path d="M1312.53 1028.68C1344.41 1076.68 1331.12 1141.6 1282.82 1173.68C1234.53 1205.75 1169.54 1192.84 1137.65 1144.83C1105.77 1096.83 1119.07 1031.92 1167.36 999.838C1215.65 967.758 1280.65 980.678 1312.53 1028.68Z" stroke="#898989"/>
<path d="M1388.51 1001.79C1415.23 1051.81 1395.44 1114.51 1344.3 1141.83C1293.15 1169.14 1230.04 1150.71 1203.33 1100.69C1176.61 1050.67 1196.4 987.967 1247.54 960.647C1298.69 933.337 1361.8 951.767 1388.51 1001.79Z" stroke="#898989"/>
<path d="M130.241 126.957C197.011 211.607 327.481 442.187 315.221 687.377C512.611 679.717 925.992 811.277 1000.42 1398.84C1008.08 1280.63 1106.81 1041.14 1440.43 1028.88" stroke="#8FC3EB" stroke-width="7"/>
</svg>
